<svg xmlns="http://www.w3.org/2000/svg" xmlns:xlink="http://www.w3.org/1999/xlink" width="500" zoomAndPan="magnify" viewBox="0 0 375 374.999991" height="500" preserveAspectRatio="xMidYMid meet" version="1.0"><defs><clipPath id="7c1bc39d03"><path d="M 0 30 L 375 30 L 375 345 L 0 345 Z M 0 30 " clip-rule="nonzero"/></clipPath></defs><g clip-path="url(#7c1bc39d03)"><path fill="#015486" d="M 216.023438 336.722656 L 216.023438 260.078125 L 149.996094 260.078125 L 149.996094 336.714844 C 149.996094 337.261719 149.941406 337.800781 149.835938 338.335938 C 149.730469 338.871094 149.574219 339.390625 149.367188 339.894531 C 149.15625 340.398438 148.902344 340.875 148.601562 341.328125 C 148.296875 341.785156 147.953125 342.203125 147.570312 342.589844 C 147.183594 342.976562 146.765625 343.320312 146.3125 343.625 C 145.859375 343.929688 145.382812 344.183594 144.878906 344.394531 C 144.375 344.605469 143.859375 344.765625 143.324219 344.871094 C 142.789062 344.980469 142.25 345.035156 141.703125 345.039062 L 54.472656 345.039062 C 53.925781 345.035156 53.386719 344.984375 52.851562 344.875 C 52.316406 344.769531 51.796875 344.613281 51.292969 344.402344 C 50.785156 344.195312 50.308594 343.9375 49.855469 343.632812 C 49.402344 343.332031 48.980469 342.984375 48.59375 342.601562 C 48.207031 342.214844 47.863281 341.792969 47.5625 341.339844 C 47.257812 340.886719 47 340.40625 46.792969 339.902344 C 46.582031 339.398438 46.425781 338.878906 46.320312 338.34375 C 46.210938 337.808594 46.15625 337.269531 46.15625 336.722656 L 46.15625 185.871094 C 46.15625 185.464844 46.195312 185.066406 46.277344 184.671875 C 46.355469 184.273438 46.472656 183.890625 46.625 183.519531 C 46.78125 183.144531 46.96875 182.792969 47.191406 182.457031 C 47.417969 182.121094 47.671875 181.808594 47.957031 181.523438 C 48.242188 181.238281 48.554688 180.984375 48.890625 180.761719 C 49.222656 180.535156 49.578125 180.347656 49.953125 180.191406 C 50.324219 180.039062 50.707031 179.921875 51.105469 179.84375 C 51.5 179.761719 51.898438 179.722656 52.304688 179.722656 C 52.707031 179.722656 53.105469 179.761719 53.503906 179.84375 C 53.898438 179.921875 54.28125 180.039062 54.65625 180.191406 C 55.027344 180.347656 55.382812 180.535156 55.71875 180.761719 C 56.054688 180.984375 56.363281 181.238281 56.648438 181.523438 C 56.933594 181.808594 57.1875 182.121094 57.414062 182.457031 C 57.636719 182.792969 57.828125 183.144531 57.980469 183.519531 C 58.136719 183.890625 58.253906 184.273438 58.332031 184.671875 C 58.410156 185.066406 58.449219 185.464844 58.449219 185.871094 L 58.449219 332.738281 L 137.703125 332.738281 L 137.703125 256.101562 C 137.703125 255.554688 137.757812 255.015625 137.863281 254.480469 C 137.972656 253.945312 138.128906 253.421875 138.339844 252.917969 C 138.546875 252.414062 138.804688 251.9375 139.109375 251.484375 C 139.410156 251.027344 139.753906 250.609375 140.140625 250.222656 C 140.527344 249.835938 140.945312 249.492188 141.402344 249.1875 C 141.855469 248.886719 142.332031 248.628906 142.835938 248.421875 C 143.34375 248.210938 143.863281 248.054688 144.398438 247.945312 C 144.933594 247.839844 145.472656 247.785156 146.019531 247.785156 L 220.039062 247.785156 C 220.585938 247.785156 221.125 247.839844 221.660156 247.945312 C 222.195312 248.054688 222.714844 248.210938 223.21875 248.421875 C 223.722656 248.628906 224.203125 248.886719 224.65625 249.1875 C 225.109375 249.492188 225.53125 249.835938 225.917969 250.222656 C 226.300781 250.609375 226.648438 251.027344 226.949219 251.484375 C 227.253906 251.9375 227.507812 252.414062 227.71875 252.917969 C 227.929688 253.421875 228.085938 253.945312 228.191406 254.480469 C 228.300781 255.015625 228.351562 255.554688 228.355469 256.101562 L 228.355469 332.738281 L 307.609375 332.738281 L 307.609375 185.871094 C 307.609375 185.464844 307.648438 185.066406 307.726562 184.671875 C 307.804688 184.273438 307.921875 183.890625 308.074219 183.519531 C 308.230469 183.144531 308.417969 182.792969 308.644531 182.457031 C 308.867188 182.121094 309.121094 181.808594 309.410156 181.523438 C 309.695312 181.238281 310.003906 180.984375 310.339844 180.761719 C 310.675781 180.535156 311.03125 180.347656 311.402344 180.191406 C 311.773438 180.039062 312.160156 179.921875 312.554688 179.84375 C 312.949219 179.761719 313.351562 179.722656 313.753906 179.722656 C 314.15625 179.722656 314.558594 179.761719 314.953125 179.84375 C 315.347656 179.921875 315.734375 180.039062 316.105469 180.191406 C 316.480469 180.347656 316.832031 180.535156 317.167969 180.761719 C 317.503906 180.984375 317.816406 181.238281 318.101562 181.523438 C 318.386719 181.808594 318.640625 182.121094 318.863281 182.457031 C 319.089844 182.792969 319.277344 183.144531 319.433594 183.519531 C 319.585938 183.890625 319.703125 184.273438 319.78125 184.671875 C 319.859375 185.066406 319.898438 185.464844 319.898438 185.871094 L 319.898438 336.722656 C 319.898438 337.269531 319.847656 337.808594 319.738281 338.34375 C 319.632812 338.878906 319.472656 339.398438 319.265625 339.902344 C 319.054688 340.40625 318.800781 340.886719 318.496094 341.339844 C 318.191406 341.792969 317.847656 342.214844 317.460938 342.601562 C 317.078125 342.984375 316.65625 343.332031 316.203125 343.632812 C 315.75 343.9375 315.269531 344.195312 314.765625 344.402344 C 314.261719 344.613281 313.742188 344.769531 313.207031 344.875 C 312.671875 344.984375 312.132812 345.035156 311.585938 345.039062 L 224.347656 345.039062 C 223.800781 345.039062 223.257812 344.984375 222.722656 344.878906 C 222.1875 344.769531 221.667969 344.613281 221.164062 344.40625 C 220.660156 344.195312 220.179688 343.941406 219.726562 343.636719 C 219.269531 343.332031 218.851562 342.988281 218.464844 342.601562 C 218.078125 342.214844 217.734375 341.796875 217.429688 341.34375 C 217.125 340.890625 216.867188 340.410156 216.660156 339.90625 C 216.449219 339.402344 216.292969 338.882812 216.183594 338.34375 C 216.078125 337.808594 216.023438 337.269531 216.023438 336.722656 Z M 364.148438 191.851562 C 364.449219 192.152344 364.78125 192.421875 365.136719 192.65625 C 365.496094 192.890625 365.871094 193.082031 366.269531 193.238281 C 366.667969 193.394531 367.078125 193.503906 367.5 193.574219 C 367.921875 193.644531 368.34375 193.667969 368.773438 193.648438 C 369.199219 193.628906 369.617188 193.566406 370.03125 193.460938 C 370.445312 193.355469 370.84375 193.207031 371.226562 193.015625 C 371.609375 192.828125 371.96875 192.601562 372.304688 192.335938 C 372.640625 192.070312 372.945312 191.777344 373.21875 191.449219 C 373.492188 191.121094 373.726562 190.765625 373.925781 190.390625 C 374.128906 190.011719 374.285156 189.617188 374.40625 189.207031 C 374.523438 188.796875 374.597656 188.378906 374.628906 187.953125 C 374.660156 187.527344 374.644531 187.101562 374.589844 186.679688 C 374.53125 186.257812 374.429688 185.84375 374.285156 185.441406 C 374.140625 185.039062 373.957031 184.65625 373.734375 184.292969 C 373.511719 183.929688 373.253906 183.59375 372.960938 183.28125 C 372.664062 182.972656 372.34375 182.695312 371.992188 182.453125 L 192.644531 32.609375 C 192.273438 32.300781 191.878906 32.023438 191.457031 31.78125 C 191.039062 31.542969 190.601562 31.339844 190.148438 31.175781 C 189.695312 31.007812 189.230469 30.882812 188.753906 30.800781 C 188.277344 30.71875 187.796875 30.675781 187.3125 30.675781 C 186.828125 30.675781 186.351562 30.71875 185.875 30.800781 C 185.398438 30.882812 184.933594 31.007812 184.476562 31.175781 C 184.023438 31.339844 183.585938 31.542969 183.167969 31.78125 C 182.75 32.023438 182.351562 32.300781 181.980469 32.609375 L 2.632812 182.453125 C 2.324219 182.710938 2.042969 183 1.789062 183.3125 C 1.535156 183.625 1.316406 183.960938 1.128906 184.320312 C 0.941406 184.675781 0.792969 185.050781 0.675781 185.4375 C 0.5625 185.824219 0.488281 186.21875 0.453125 186.621094 C 0.417969 187.023438 0.421875 187.425781 0.464844 187.824219 C 0.507812 188.226562 0.585938 188.621094 0.707031 189.007812 C 0.828125 189.390625 0.984375 189.761719 1.179688 190.113281 C 1.371094 190.46875 1.597656 190.800781 1.855469 191.109375 C 2.117188 191.421875 2.402344 191.703125 2.714844 191.957031 C 3.03125 192.210938 3.367188 192.429688 3.722656 192.617188 C 4.082031 192.804688 4.453125 192.953125 4.839844 193.066406 C 5.230469 193.183594 5.625 193.257812 6.023438 193.292969 C 6.425781 193.328125 6.828125 193.324219 7.230469 193.28125 C 7.632812 193.238281 8.023438 193.15625 8.410156 193.039062 C 8.796875 192.917969 9.164062 192.761719 9.519531 192.566406 C 9.875 192.375 10.207031 192.148438 10.515625 191.890625 L 187.3125 44.167969 Z M 246.074219 50.753906 L 292.632812 50.753906 L 292.632812 97.3125 C 292.632812 97.71875 292.671875 98.117188 292.75 98.511719 C 292.828125 98.910156 292.945312 99.292969 293.101562 99.667969 C 293.253906 100.039062 293.445312 100.394531 293.667969 100.730469 C 293.890625 101.0625 294.148438 101.375 294.433594 101.660156 C 294.71875 101.945312 295.027344 102.199219 295.363281 102.425781 C 295.699219 102.648438 296.054688 102.835938 296.425781 102.992188 C 296.800781 103.148438 297.183594 103.261719 297.578125 103.34375 C 297.976562 103.421875 298.375 103.460938 298.777344 103.460938 C 299.179688 103.460938 299.582031 103.421875 299.976562 103.34375 C 300.371094 103.261719 300.757812 103.148438 301.128906 102.992188 C 301.503906 102.835938 301.855469 102.648438 302.191406 102.425781 C 302.527344 102.199219 302.839844 101.945312 303.125 101.660156 C 303.410156 101.375 303.664062 101.0625 303.886719 100.730469 C 304.113281 100.394531 304.300781 100.039062 304.457031 99.667969 C 304.609375 99.292969 304.726562 98.910156 304.804688 98.511719 C 304.882812 98.117188 304.925781 97.71875 304.925781 97.3125 L 304.925781 46.777344 C 304.921875 46.230469 304.871094 45.691406 304.761719 45.15625 C 304.65625 44.621094 304.5 44.101562 304.289062 43.597656 C 304.078125 43.09375 303.824219 42.613281 303.519531 42.160156 C 303.21875 41.707031 302.871094 41.289062 302.488281 40.902344 C 302.101562 40.515625 301.679688 40.171875 301.226562 39.867188 C 300.773438 39.5625 300.292969 39.308594 299.789062 39.097656 C 299.285156 38.890625 298.765625 38.730469 298.230469 38.625 C 297.695312 38.519531 297.15625 38.464844 296.609375 38.464844 L 246.074219 38.464844 C 245.671875 38.464844 245.269531 38.503906 244.875 38.582031 C 244.476562 38.660156 244.09375 38.777344 243.722656 38.929688 C 243.347656 39.085938 242.992188 39.273438 242.65625 39.5 C 242.324219 39.722656 242.011719 39.976562 241.726562 40.261719 C 241.441406 40.546875 241.1875 40.859375 240.960938 41.195312 C 240.738281 41.53125 240.546875 41.882812 240.394531 42.257812 C 240.238281 42.628906 240.121094 43.015625 240.042969 43.410156 C 239.964844 43.804688 239.925781 44.207031 239.925781 44.609375 C 239.925781 45.011719 239.964844 45.414062 240.042969 45.808594 C 240.121094 46.203125 240.238281 46.589844 240.394531 46.960938 C 240.546875 47.335938 240.738281 47.6875 240.960938 48.023438 C 241.1875 48.359375 241.441406 48.671875 241.726562 48.957031 C 242.011719 49.242188 242.324219 49.496094 242.65625 49.722656 C 242.992188 49.945312 243.347656 50.132812 243.722656 50.289062 C 244.09375 50.441406 244.476562 50.558594 244.875 50.636719 C 245.269531 50.714844 245.671875 50.757812 246.074219 50.753906 Z M 246.074219 50.753906 " fill-opacity="1" fill-rule="nonzero"/></g></svg>