<svg width="56" height="56" viewBox="0 0 56 56" fill="none" xmlns="http://www.w3.org/2000/svg">
<path fill-rule="evenodd" clip-rule="evenodd" d="M42.5 48.3678C38.4106 51.2843 33.4057 53 28 53C22.5943 53 17.5894 51.2843 13.5 48.3678V43.6667C13.5 41.1177 14.2628 38.7314 15.5431 37.0242C16.8173 35.3253 18.4382 34.5 20 34.5H36C37.5618 34.5 39.1827 35.3253 40.4569 37.0242C41.7372 38.7314 42.5 41.1177 42.5 43.6667V48.3678ZM45.5 45.8536V43.6667C45.5 40.5578 44.5771 37.5179 42.8569 35.2242C41.1305 32.9224 38.6817 31.5 36 31.5H20C17.3183 31.5 14.8695 32.9224 13.1431 35.2242C11.4229 37.5179 10.5 40.5578 10.5 43.6667V45.8536C5.87159 41.3163 3 34.9935 3 28C3 14.1929 14.1929 3 28 3C41.8071 3 53 14.1929 53 28C53 34.9935 50.1284 41.3163 45.5 45.8536ZM56 28C56 43.464 43.464 56 28 56C12.536 56 0 43.464 0 28C0 12.536 12.536 0 28 0C43.464 0 56 12.536 56 28ZM28 10.7C24.4101 10.7 21.5 13.6101 21.5 17.2C21.5 20.7899 24.4101 23.7 28 23.7C31.5899 23.7 34.5 20.7899 34.5 17.2C34.5 13.6101 31.5899 10.7 28 10.7ZM18.5 17.2C18.5 11.9533 22.7533 7.7 28 7.7C33.2467 7.7 37.5 11.9533 37.5 17.2C37.5 22.4467 33.2467 26.7 28 26.7C22.7533 26.7 18.5 22.4467 18.5 17.2Z" fill="#015486"/>
</svg>
